<?xml version="1.0" encoding="UTF-8"?>
<svg version="1.1" xmlns="http://www.w3.org/2000/svg" width="2000" height="642">
<path d="M0 0 C2.17138179 -0.00239676 4.34276276 -0.00566635 6.5141421 -0.0097166 C12.43606661 -0.01826537 18.35792703 -0.01454007 24.27985239 -0.00866088 C30.73974216 -0.00446595 37.19962076 -0.0119064 43.65950775 -0.01781338 C54.96681604 -0.02690386 66.2741081 -0.02796391 77.58141899 -0.02431011 C89.70466961 -0.02042405 101.8279085 -0.02090432 113.95115852 -0.02661991 C114.71905883 -0.02697874 115.48695914 -0.02733756 116.27812915 -0.02770726 C119.40607659 -0.0291823 122.53402401 -0.03068671 125.66197142 -0.03222873 C157.35948545 -0.04783634 189.05699142 -0.05054565 220.75450861 -0.04807267 C225.12946549 -0.04773419 229.50442238 -0.0474121 233.87937927 -0.04710698 C234.74844287 -0.04704594 235.61750647 -0.04698489 236.51290533 -0.046922 C255.79985937 -0.04564838 275.08681231 -0.04825465 294.37376603 -0.05163305 C298.78191377 -0.0524038 303.19006152 -0.05314854 307.59820926 -0.05389806 C309.36747966 -0.05419976 311.13675007 -0.05450164 312.90602047 -0.05480371 C313.78303825 -0.05495338 314.66005604 -0.05510306 315.56365012 -0.05525728 C317.33767082 -0.05556081 319.11169151 -0.0558655 320.88571221 -0.05617132 C371.20342556 -0.06484086 421.52113793 -0.06949082 471.83885193 -0.06522369 C472.76999466 -0.06514564 473.70113739 -0.06506758 474.66049656 -0.06498716 C485.0429433 -0.06411441 495.42539004 -0.06318515 505.80783677 -0.06223653 C507.21381999 -0.06210826 507.21381999 -0.06210826 508.64820691 -0.06197741 C516.43500924 -0.06126675 516.43500924 -0.06126675 520.01996965 -0.06093518 C579.96156644 -0.05540058 639.90314782 -0.06293963 699.84474182 -0.08170605 C714.94753008 -0.08642857 730.05031834 -0.09110922 745.15310669 -0.09554291 C746.54816764 -0.09595289 746.54816764 -0.09595289 747.97141163 -0.09637116 C776.65383336 -0.10474757 805.33625381 -0.1094226 834.01867676 -0.11025047 C834.91969763 -0.11027684 835.8207185 -0.11030321 836.74904303 -0.11033037 C856.53227333 -0.11087125 876.31550353 -0.11049848 896.0987338 -0.10929066 C903.1781599 -0.10886506 910.25758601 -0.10849993 917.33701211 -0.10816122 C919.09806649 -0.10807591 920.85912086 -0.10798698 922.62017524 -0.1078944 C950.63204165 -0.10644814 978.64389756 -0.11355554 1006.65576146 -0.12489836 C1035.66866739 -0.13657044 1064.68155465 -0.137088 1093.69446069 -0.12505493 C1096.81668713 -0.12380322 1099.93891359 -0.12259972 1103.06114006 -0.12143421 C1103.82734107 -0.12114392 1104.59354209 -0.12085362 1105.38296131 -0.12055453 C1117.46474914 -0.11624648 1129.54651021 -0.12192954 1141.62829383 -0.1318744 C1153.53804872 -0.14146382 1165.44776274 -0.1401671 1177.35751532 -0.12766818 C1183.71572506 -0.12143128 1190.07383887 -0.11976024 1196.43204296 -0.13153151 C1260.79678689 -0.24245807 1322.00063931 7.54183738 1380.53175354 36.25447559 C1381.48646545 36.71692677 1382.44117737 37.17937794 1383.42481995 37.65584278 C1403.8067563 47.59943217 1422.98513305 59.86768307 1440.53175354 74.25447559 C1441.05205139 74.68002735 1441.57234924 75.10557911 1442.1084137 75.54402637 C1461.56296865 91.52601028 1478.65841592 108.89666213 1493.53175354 129.25447559 C1494.22011292 130.19162403 1494.90847229 131.12877247 1495.61769104 132.09431934 C1497.30626847 134.45145119 1498.93433208 136.83473619 1500.53175354 139.25447559 C1501.11698792 140.14006153 1501.70222229 141.02564747 1502.30519104 141.93806934 C1518.81586413 167.84971751 1530.58435222 196.27486089 1536.78175354 226.37947559 C1536.93289612 227.10529835 1537.0840387 227.8311211 1537.23976135 228.57893848 C1540.22528592 244.07771979 1540.88034779 259.53951941 1540.84742737 275.28401661 C1540.84427461 278.4210106 1540.86780603 281.55705074 1540.89308167 284.69392872 C1540.95129863 303.00020832 1539.31951465 321.09812845 1534.78175354 338.87947559 C1534.52353821 339.91322315 1534.26532288 340.94697071 1533.99928284 342.01204395 C1527.52980709 367.27961904 1517.68072989 391.28188352 1503.53175354 413.25447559 C1503.10426819 413.91850391 1502.67678284 414.58253223 1502.23634338 415.26668262 C1486.18681429 439.90291791 1465.79592597 463.21652932 1442.53175354 481.25447559 C1441.19337329 482.33118425 1439.85623241 483.40943449 1438.52003479 484.48885059 C1423.79733854 496.28627002 1408.15337455 506.02469781 1391.58253479 515.00056934 C1390.90360168 515.37842579 1390.22466858 515.75628223 1389.52516174 516.14558887 C1388.24987043 516.85500384 1386.96513039 517.54785106 1385.66920471 518.21883106 C1378.41441131 522.27460872 1372.94392599 528.59055069 1367.21925354 534.50447559 C1359.66313601 542.28776752 1352.10402813 549.57480383 1343.53175354 556.25447559 C1342.40148681 557.15935057 1341.27126797 558.06428538 1340.14112854 558.96931934 C1332.19693932 565.14451561 1324.01267911 570.84055141 1315.53175354 576.25447559 C1314.96327698 576.61863575 1314.39480042 576.98279591 1313.80909729 577.35799122 C1273.26984893 603.08301309 1227.27649218 619.27875747 1179.90675354 626.50447559 C1178.92045959 626.65569874 1177.93416565 626.80692188 1176.91798401 626.96272755 C1158.00430244 629.64370482 1139.03875996 630.55358593 1119.95607662 630.50895119 C1117.78523476 630.51134842 1115.61439372 630.51461831 1113.44355431 630.51866779 C1107.52779098 630.52720999 1101.61209187 630.52349406 1095.6963277 630.51761206 C1089.24137847 630.51341472 1082.78644038 630.52085893 1076.33149391 630.52676457 C1065.03441074 630.53585222 1053.7373438 630.53691605 1042.44025803 630.5332613 C1030.32871534 630.52937446 1018.2171844 630.52985671 1006.10564232 630.5355711 C1005.33832326 630.53592992 1004.5710042 630.53628875 1003.78043305 630.53665845 C1000.65482648 630.5381335 997.52921992 630.53963791 994.40361337 630.54117992 C962.73453186 630.5567851 931.06545843 630.55949712 899.39637376 630.55702385 C895.02580349 630.55668538 890.65523323 630.55636328 886.28466296 630.55605817 C885.41646604 630.55599712 884.54826913 630.55593608 883.65376321 630.55587319 C864.38412427 630.55459944 845.11448643 630.55720605 825.84484782 630.56058424 C821.440373 630.56135499 817.03589817 630.56209973 812.63142334 630.56284925 C810.86362285 630.56315094 809.09582235 630.56345283 807.32802186 630.56375489 C806.01358663 630.56397941 806.01358663 630.56397941 804.67259715 630.56420847 C802.90004522 630.564512 801.12749329 630.56481668 799.35494136 630.56512251 C749.08118587 630.57379164 698.80743135 630.57844228 648.53367519 630.57417488 C647.60340635 630.57409682 646.67313751 630.57401877 645.7146787 630.57393835 C635.34202316 630.5730656 624.96936763 630.57213634 614.5967121 630.57118771 C613.66027731 630.5711022 612.72384252 630.57101669 611.75903091 630.57092859 C603.9796724 630.57021794 603.9796724 630.57021794 600.39803736 630.56988637 C540.51088134 630.56435155 480.62374075 630.57189161 420.73658752 630.59065723 C405.64687065 630.59537977 390.55715376 630.60006042 375.46743679 630.60449409 C374.53819889 630.60476742 373.60896099 630.60504074 372.65156437 630.60532234 C343.99394939 630.61369874 315.33633571 630.61837378 286.67871952 630.61920166 C285.7784817 630.61922803 284.87824389 630.61925439 283.95072614 630.61928156 C264.1847321 630.61982244 244.41873816 630.61944966 224.65274415 630.61824184 C217.5795143 630.61781625 210.50628444 630.61745112 203.43305459 630.6171124 C201.67354617 630.6170271 199.91403776 630.61693816 198.15452935 630.61684558 C170.1678034 630.61539936 142.18108796 630.62250653 114.19436454 630.63384954 C85.20813782 630.64552158 56.2219298 630.64603922 27.23570298 630.63400612 C24.1163594 630.6327544 20.99701581 630.6315509 17.8776722 630.6303854 C17.11217925 630.6300951 16.34668631 630.62980481 15.55799661 630.62950572 C3.48747096 630.6251977 -8.58302792 630.63088067 -20.65354936 630.64082559 C-32.55221826 630.65041508 -44.45084627 630.64911819 -56.34951285 630.63661937 C-62.70176563 630.63038254 -69.05392238 630.62871123 -75.40616948 630.6404827 C-165.88231744 630.79655857 -256.91362197 612.11455647 -326.46824646 550.25447559 C-327.8638798 549.04591127 -329.25968856 547.83754946 -330.65574646 546.62947559 C-331.92871885 545.50689657 -333.19943048 544.38175035 -334.46824646 543.25447559 C-335.28035583 542.53517872 -336.09246521 541.81588184 -336.92918396 541.07478809 C-353.36478757 526.4160065 -367.36570546 509.64850766 -379.46824646 491.25447559 C-380.09859802 490.30056934 -380.72894958 489.34666309 -381.37840271 488.36385059 C-397.84107057 462.53740656 -409.5415253 434.13363394 -415.71824646 404.12947559 C-415.86938904 403.40365284 -416.02053162 402.67783009 -416.17625427 401.9300127 C-419.16177884 386.4312314 -419.81684071 370.96943177 -419.78392029 355.22493458 C-419.78076753 352.08794059 -419.80429895 348.95190045 -419.82957458 345.81502247 C-419.88787938 327.42489696 -418.11434738 309.29804304 -413.84324646 291.37947559 C-413.59163757 290.31269581 -413.34002869 289.24591602 -413.08079529 288.14680958 C-399.73452135 233.98646109 -365.5012338 183.39558516 -321.46824646 149.25447559 C-320.12986621 148.17776694 -318.79272533 147.0995167 -317.45652771 146.02010059 C-302.73383146 134.22268117 -287.08986747 124.48425338 -270.51902771 115.50838184 C-269.8400946 115.1305254 -269.1611615 114.75266895 -268.46165466 114.36336231 C-267.18636335 113.65394735 -265.90162331 112.96110013 -264.60569763 112.29012012 C-257.35090423 108.23434246 -251.88041891 101.91840049 -246.15574646 96.00447559 C-238.59962893 88.22118366 -231.04052105 80.93414736 -222.46824646 74.25447559 C-221.33797973 73.34960062 -220.20776089 72.44466581 -219.07762146 71.53963184 C-211.13343224 65.36443558 -202.94917203 59.66839978 -194.46824646 54.25447559 C-193.8997699 53.89031544 -193.33129333 53.52615528 -192.74559021 53.15095997 C-151.8110159 27.17507581 -105.93390917 11.58963672 -58.21824646 4.00447559 C-56.80346008 3.77764088 -56.80346008 3.77764088 -55.36009216 3.54622364 C-36.97462994 0.81210209 -18.56222579 -0.04332158 0 0 Z " fill="#C5DAFE" transform="translate(439.46824645996094,5.7455244064331055)"/>
<path d="M0 0 C0 3.72979696 -0.7073169 4.03063635 -3.25 6.625 C-28.28513725 33.99616239 -45.06711406 70.4084598 -54.25 106 C-54.48444824 106.89984619 -54.71889648 107.79969238 -54.96044922 108.72680664 C-59.330171 126.54291207 -60.51056543 144.0169499 -60.44604492 162.32373047 C-60.43757506 165.96770599 -60.4663508 169.61008572 -60.49804688 173.25390625 C-60.61857435 213.70296233 -51.18957466 251.40113168 -32 287 C-31.66178223 287.64163086 -31.32356445 288.28326172 -30.97509766 288.94433594 C-23.19741062 303.66005277 -13.69804587 317.25381523 -3 330 C-2.36723145 330.76594482 -2.36723145 330.76594482 -1.72167969 331.54736328 C8.21884945 343.56496563 18.91593818 355.09748563 31 365 C31.4842041 365.40331543 31.9684082 365.80663086 32.46728516 366.22216797 C53.57857532 383.76376505 76.41568011 398.26047698 101.16308594 410.11621094 C102.94132325 410.97176903 104.70916863 411.84882307 106.4765625 412.7265625 C155.46811582 436.51625247 209.61771775 445.18753402 263.63181114 445.12863445 C265.78547165 445.12998344 267.93913191 445.13176864 270.09279174 445.13394669 C275.99344365 445.13865353 281.89408004 445.13718256 287.79473269 445.13466892 C294.22108758 445.1330306 300.64743921 445.13718103 307.07379305 445.14057809 C318.33140885 445.14590095 329.58902084 445.14718534 340.84663773 445.14612198 C352.92080044 445.14499587 364.99496007 445.14603737 377.06912231 445.14969444 C377.8329828 445.1499241 378.59684329 445.15015375 379.38385107 445.15039036 C382.49517978 445.15133205 385.60650848 445.15228774 388.71783717 445.15326155 C421.14294181 445.16339533 453.56804472 445.16646715 485.99315076 445.16705366 C489.48126208 445.16711841 492.9693734 445.16718635 496.45748472 445.16725707 C497.32311207 445.16727408 498.18873942 445.16729108 499.08059791 445.1673086 C518.27920307 445.16771739 537.4778079 445.16990839 556.67641289 445.17241292 C564.58654094 445.1734413 572.496669 445.17443135 580.40679705 445.17542917 C581.71787879 445.17559505 581.71787879 445.17559505 583.05544702 445.17576428 C633.1314642 445.18208685 683.20748116 445.18621357 733.28349876 445.18575573 C735.1568011 445.18573995 737.03010344 445.18572422 738.90340578 445.18570852 C747.36083864 445.18563514 755.8182715 445.18554697 764.27570437 445.18545464 C768.04693456 445.18541351 771.81816476 445.18537337 775.58939495 445.18533332 C777.47696192 445.18531293 779.36452888 445.18529191 781.25209585 445.18527026 C840.92669273 445.18459016 900.60128368 445.19190551 960.27587891 445.20581055 C975.30960781 445.20931173 990.34333671 445.21278126 1005.37706566 445.21607494 C1006.30282259 445.21627782 1007.22857951 445.21648069 1008.18238968 445.21668971 C1036.72851458 445.22290755 1065.27463899 445.22667083 1093.82076454 445.22793293 C1094.71739073 445.22797288 1095.61401692 445.22801283 1096.5378136 445.22805399 C1116.22378462 445.22890739 1135.90975561 445.22916842 1155.59572664 445.22888362 C1162.64027331 445.22878714 1169.68481997 445.22873509 1176.72936664 445.22870489 C1178.48178771 445.22869697 1180.23420878 445.22868677 1181.98662984 445.22867426 C1209.87421433 445.22849816 1237.76179372 445.2341869 1265.64937675 445.24282808 C1293.74883163 445.25149064 1321.84827947 445.25365847 1349.94773513 445.24706676 C1353.83744576 445.24615457 1357.72715641 445.24531126 1361.61686707 445.24450874 C1362.3792963 445.24434866 1363.14172553 445.24418857 1363.92725868 445.24402363 C1375.96045575 445.241678 1387.99364058 445.24601108 1400.02683535 445.25317993 C1411.88236585 445.26010134 1423.737877 445.25962538 1435.59340718 445.25198779 C1441.92543125 445.24811213 1448.25741223 445.24731379 1454.58943324 445.25544515 C1498.80549178 445.39359844 1498.80549178 445.39359844 1542.6875 440.4375 C1543.42849945 440.31227966 1544.1694989 440.18705933 1544.93295288 440.05804443 C1561.31602965 437.26032667 1577.16380203 433.00491837 1593 428 C1594.07056641 427.66210449 1595.14113281 427.32420898 1596.24414062 426.97607422 C1608.43245826 423.06341371 1620.17960276 418.39111874 1631.81860352 413.06079102 C1632.73053467 412.64756592 1633.64246582 412.23434082 1634.58203125 411.80859375 C1635.38874268 411.43532959 1636.1954541 411.06206543 1637.02661133 410.67749023 C1637.67782959 410.45391846 1638.32904785 410.23034668 1639 410 C1639.66 410.33 1640.32 410.66 1641 411 C1637.50538004 414.54475798 1634.00370706 418.08235477 1630.49584961 421.61401367 C1629.30810304 422.81170223 1628.12217052 424.01119304 1626.93823242 425.21264648 C1619.62063579 432.63562147 1612.23472606 439.58744061 1604 446 C1602.86971925 446.90485747 1601.73949829 447.80978963 1600.609375 448.71484375 C1592.66518578 454.89004002 1584.48092557 460.58607582 1576 466 C1575.43152344 466.36416016 1574.86304688 466.72832031 1574.27734375 467.10351562 C1533.73809539 492.8285375 1487.74473864 509.02428188 1440.375 516.25 C1439.38870605 516.40122314 1438.40241211 516.55244629 1437.38623047 516.70825195 C1418.4725489 519.38922923 1399.50700642 520.29911034 1380.42432308 520.25447559 C1378.25348122 520.25687283 1376.08264018 520.26014272 1373.91180077 520.26419219 C1367.99603744 520.27273439 1362.08033833 520.26901847 1356.16457416 520.26313647 C1349.70962493 520.25893912 1343.25468684 520.26638334 1336.79974037 520.27228898 C1325.5026572 520.28137663 1314.20559026 520.28244045 1302.90850449 520.27878571 C1290.7969618 520.27489887 1278.68543086 520.27538111 1266.57388878 520.2810955 C1265.80656972 520.28145433 1265.03925066 520.28181316 1264.24867951 520.28218286 C1261.12307294 520.2836579 1257.99746638 520.28516232 1254.87185983 520.28670432 C1223.20277832 520.30230951 1191.53370489 520.30502152 1159.86462022 520.30254826 C1155.49404995 520.30220978 1151.12347969 520.30188769 1146.75290942 520.30158257 C1145.8847125 520.30152153 1145.01651559 520.30146049 1144.12200967 520.30139759 C1124.85237073 520.30012385 1105.58273289 520.30273046 1086.31309428 520.30610864 C1081.90861946 520.30687939 1077.50414463 520.30762413 1073.0996698 520.30837366 C1071.33186931 520.30867535 1069.56406881 520.30897723 1067.79626832 520.3092793 C1066.48183309 520.30950382 1066.48183309 520.30950382 1065.14084361 520.30973287 C1063.36829168 520.31003641 1061.59573975 520.31034109 1059.82318782 520.31064692 C1009.54943233 520.31931604 959.27567781 520.32396669 909.00192165 520.31969929 C908.07165281 520.31962123 907.14138397 520.31954317 906.18292516 520.31946275 C895.81026962 520.31859001 885.43761409 520.31766075 875.06495856 520.31671212 C874.12852377 520.31662661 873.19208898 520.3165411 872.22727737 520.316453 C864.44791886 520.31574235 864.44791886 520.31574235 860.86628382 520.31541077 C800.9791278 520.30987596 741.09198721 520.31741601 681.20483398 520.33618164 C666.11511711 520.34090417 651.02540022 520.34558482 635.93568325 520.3500185 C635.00644535 520.35029182 634.07720745 520.35056515 633.11981083 520.35084675 C604.46219585 520.35922315 575.80458217 520.36389819 547.14696598 520.36472607 C546.24672816 520.36475243 545.34649035 520.3647788 544.4189726 520.36480596 C524.65297856 520.36534685 504.88698462 520.36497407 485.12099061 520.36376625 C478.04776076 520.36334066 470.9745309 520.36297552 463.90130105 520.36263681 C462.14179263 520.36255151 460.38228422 520.36246257 458.62277581 520.36236999 C430.63604986 520.36092376 402.64933442 520.36803093 374.662611 520.37937395 C345.67638428 520.39104598 316.69017626 520.39156363 287.70394944 520.37953053 C284.58460586 520.37827881 281.46526227 520.37707531 278.34591866 520.37590981 C277.58042571 520.37561951 276.81493277 520.37532922 276.02624307 520.37503013 C263.95571742 520.37072211 251.88521854 520.37640507 239.8146971 520.38635 C227.9160282 520.39593949 216.01740019 520.3946426 204.11873361 520.38214377 C197.76648083 520.37590695 191.41432408 520.37423564 185.06207698 520.38600711 C94.58592902 520.54208298 3.55462449 501.86008088 -66 440 C-67.39563334 438.79143568 -68.7914421 437.58307387 -70.1875 436.375 C-71.46047239 435.25242098 -72.73118402 434.12727475 -74 433 C-74.81210938 432.28070312 -75.62421875 431.56140625 -76.4609375 430.8203125 C-92.89654111 416.1615309 -106.897459 399.39403206 -119 381 C-119.63035156 380.04609375 -120.26070312 379.0921875 -120.91015625 378.109375 C-137.37282411 352.28293096 -149.07327884 323.87915835 -155.25 293.875 C-155.40114258 293.14917725 -155.55228516 292.42335449 -155.70800781 291.67553711 C-158.69353238 276.1767558 -159.34859425 260.71495618 -159.31567383 244.97045898 C-159.31252107 241.833465 -159.33605249 238.69742485 -159.36132812 235.56054688 C-159.41963292 217.17042136 -157.64610092 199.04356745 -153.375 181.125 C-153.12339111 180.05822021 -152.87178223 178.99144043 -152.61254883 177.89233398 C-139.26627489 123.7319855 -105.03298734 73.14110957 -61 39 C-59.66161975 37.92329134 -58.32447887 36.84504111 -56.98828125 35.765625 C-39.39997208 21.67196602 -20.22570594 9.93821972 0 0 Z " fill="#283360" transform="translate(179,116)"/>
<path d="M0 0 C3.7159635 1.40160576 7.11962329 3.08418705 10.5859375 5.01953125 C11.66931396 5.62273193 12.75269043 6.22593262 13.86889648 6.84741211 C15.03767008 7.50231217 16.20636935 8.15734489 17.375 8.8125 C18.59373217 9.49309761 19.81256496 10.17351506 21.03149414 10.85375977 C24.69048939 12.89747973 28.3458016 14.94771807 32 17 C33.01078613 17.56750977 34.02157227 18.13501953 35.06298828 18.71972656 C46.96367713 25.40990973 58.81862597 32.17952126 70.66622925 38.96310425 C79.92184844 44.26111135 89.21342719 49.49207615 98.52636719 54.6887207 C110.07556566 61.14252192 121.55412828 67.71932466 133.03173828 74.29931641 C135.24890392 75.56965494 137.46681005 76.83865024 139.68551636 78.10629272 C140.77929596 78.73121613 141.87307556 79.35613953 143 80 C143.3950757 90.25658052 143.69650464 100.51133544 143.88080692 110.77399254 C143.96930492 115.54071278 144.08911467 120.30220724 144.2824707 125.06591797 C144.46816352 129.67001443 144.56900166 134.26911401 144.61291313 138.87666702 C144.64416592 140.62758786 144.70522007 142.37825422 144.79741096 144.1270256 C145.35993431 155.24695242 145.35993431 155.24695242 143 160 C138.84726366 164.28481182 133.46688608 166.72624986 128.06304932 169.07945251 C125.21249714 170.35138945 122.54625855 171.89933513 119.85546875 173.4765625 C117.96701142 174.52759843 116.07767618 175.57705838 114.1875 176.625 C105.09163525 181.69261581 96.03315324 186.82177517 87 192 C78.19291177 197.04752455 69.36446246 202.05364125 60.5 207 C51.47437283 212.03897123 42.47624007 217.12373541 33.5 222.25 C32.90776642 222.58789551 32.31553284 222.92579102 31.70535278 223.27392578 C25.96392426 226.55129448 20.23367042 229.84315768 14.55859375 233.234375 C13.76453125 233.70842773 12.97046875 234.18248047 12.15234375 234.67089844 C10.72535896 235.52721515 9.30187684 236.38940981 7.8828125 237.25878906 C3.3261189 240 3.3261189 240 0 240 C-3.6578052 232.75385555 -7.30914421 225.5045057 -10.95223999 218.25095654 C-12.64402129 214.88305946 -14.33802019 211.5163166 -16.03710938 208.15209961 C-17.676292 204.90629546 -19.30961943 201.65760746 -20.93890381 198.40682411 C-21.56198865 197.16620372 -22.18718727 195.92664264 -22.81451416 194.68816185 C-23.69180282 192.95531408 -24.56093933 191.21834636 -25.4296875 189.48120117 C-25.92710449 188.49302902 -26.42452148 187.50485687 -26.93701172 186.48674011 C-28 184 -28 184 -28 181 C-27.39341553 180.67427002 -26.78683105 180.34854004 -26.16186523 180.01293945 C-14.98783034 174.00517972 -3.84197547 167.95743287 7.1875 161.6875 C15.84007109 156.76896773 24.53123755 151.9248374 33.25 147.125 C34.46753415 146.45451728 35.68506345 145.78402575 36.90258789 145.11352539 C37.50702225 144.78067032 38.1114566 144.44781525 38.73420715 144.10487366 C39.34012192 143.77120285 39.94603668 143.43753204 40.5703125 143.09375 C41.17739548 142.75947495 41.78447845 142.42519989 42.40995789 142.08079529 C48.72190126 138.60431659 55.02768651 135.11677703 61.32897949 131.62103271 C63.0889142 130.64501238 64.84962496 129.67039182 66.61035156 128.69580078 C67.66963867 128.10782715 68.72892578 127.51985352 69.8203125 126.9140625 C70.75117676 126.3979541 71.68204102 125.8818457 72.64111328 125.35009766 C76.53454973 123.3949396 76.53454973 123.3949396 78.6875 119.875 C78.790625 119.25625 78.89375 118.6375 79 118 C78.19949219 117.77699219 77.39898438 117.55398438 76.57421875 117.32421875 C71.99973764 115.629411 68.00997913 113.27845912 63.8125 110.8125 C61.9292668 109.72113394 60.04510616 108.63136712 58.16015625 107.54296875 C57.16129395 106.96595215 56.16243164 106.38893555 55.13330078 105.79443359 C49.70219294 102.68405159 44.22567014 99.65602706 38.75 96.625 C28.97402111 91.20832727 19.20855102 85.77396505 9.46777344 80.29418945 C4.45758583 77.47945487 -0.56218416 74.68521853 -5.61047363 71.93948364 C-8.13109706 70.56819882 -10.64818477 69.19048605 -13.1652832 67.81274414 C-14.38070078 67.15012727 -15.59797196 66.49089826 -16.81713867 65.83520508 C-18.50761873 64.925845 -20.19148322 64.00421878 -21.875 63.08203125 C-22.84179688 62.55843018 -23.80859375 62.0348291 -24.8046875 61.49536133 C-27 60 -27 60 -28 57 C-27.14665222 54.69876099 -27.14665222 54.69876099 -25.75854492 51.96533203 C-25.24438522 50.94061798 -24.73022552 49.91590393 -24.20048523 48.86013794 C-23.63287979 47.75387054 -23.06527435 46.64760315 -22.48046875 45.5078125 C-21.90669998 44.36972137 -21.33293121 43.23163025 -20.74177551 42.05905151 C-19.21240088 39.02910917 -17.67475676 36.0036754 -16.13262939 32.98022461 C-13.9670159 28.72927287 -11.81701044 24.47040228 -9.6653595 20.21237183 C-8.51891252 17.94586726 -7.36934725 15.68093674 -6.21635437 13.41775513 C-5.69273819 12.38673676 -5.16912201 11.35571838 -4.62963867 10.29345703 C-4.16917648 9.38983429 -3.70871429 8.48621155 -3.23429871 7.5552063 C-2.03550071 5.07349245 -0.99047917 2.57106799 0 0 Z " fill="#283360" transform="translate(535,165)"/>
<path d="M0 0 C0.36629517 0.77802979 0.36629517 0.77802979 0.73999023 1.57177734 C1.96850487 4.17475763 3.2023399 6.77516619 4.4375 9.375 C4.90961914 10.36983398 5.38173828 11.36466797 5.86816406 12.38964844 C9.01202858 18.96858609 12.24533449 25.49328659 15.55078125 31.9921875 C16.33471781 33.53857371 17.11865336 35.08496042 17.90258789 36.63134766 C19.07432205 38.94142923 20.24965378 41.24932801 21.43600464 43.55194092 C22.55453435 45.72304052 23.6610178 47.89991734 24.765625 50.078125 C25.27885063 51.06110062 25.27885063 51.06110062 25.80244446 52.06393433 C26.61167587 53.67294698 27.31546662 55.33410948 28 57 C26.75194786 60.74415642 25.80980167 60.92928078 22.390625 62.71484375 C21.41955811 63.22966309 20.44849121 63.74448242 19.44799805 64.27490234 C18.39265869 64.82355957 17.33731934 65.3722168 16.25 65.9375 C14.03147594 67.11385813 11.81404557 68.29228095 9.59765625 69.47265625 C8.48148926 70.06578613 7.36532227 70.65891602 6.21533203 71.27001953 C1.65748 73.72233081 -2.83137514 76.28584702 -7.3125 78.875 C-18.61854211 85.38598195 -30.02692709 91.70812929 -41.44042969 98.02832031 C-46.95485001 101.082138 -52.46585158 104.14211344 -57.97650146 107.20272827 C-59.70299683 108.16140052 -61.42986242 109.1194059 -63.15673828 110.07739258 C-65.21626234 111.2208225 -67.27418048 112.36715236 -69.33007812 113.51708984 C-70.97134585 114.42867179 -72.61971026 115.32777734 -74.27929688 116.20556641 C-78.15234577 118.16802729 -78.15234577 118.16802729 -80 122 C-79.2766748 122.27674561 -78.55334961 122.55349121 -77.80810547 122.83862305 C-75.12213209 123.94948858 -72.62451062 125.19770429 -70.0703125 126.58203125 C-69.12260986 127.09483643 -68.17490723 127.6076416 -67.19848633 128.13598633 C-66.18423584 128.68923584 -65.16998535 129.24248535 -64.125 129.8125 C-63.05854248 130.39217529 -61.99208496 130.97185059 -60.89331055 131.5690918 C-52.88067305 135.93903057 -44.92623452 140.40598325 -36.99169922 144.91577148 C-29.27696852 149.29508841 -21.52126095 153.59718372 -13.75 157.875 C-13.14810852 158.20633942 -12.54621704 158.53767883 -11.92608643 158.87905884 C-11.32479919 159.21005585 -10.72351196 159.54105286 -10.10400391 159.88208008 C-8.88312721 160.55417958 -7.66226136 161.22629878 -6.44140625 161.8984375 C-5.83494263 162.23229965 -5.228479 162.5661618 -4.6036377 162.91014099 C2.37820935 166.75576806 9.34594614 170.62675691 16.3125 174.5 C16.90897339 174.83159119 17.50544678 175.16318237 18.11999512 175.50482178 C21.41366331 177.33594909 24.70699687 179.16767698 28 181 C27.3101584 184.35439755 26.05456572 187.12718221 24.515625 190.17993164 C23.99838867 191.21102554 23.48115234 192.24211945 22.94824219 193.30445862 C22.38782227 194.41183884 21.82740234 195.51921906 21.25 196.66015625 C20.39003418 198.37228554 20.39003418 198.37228554 19.51269531 200.1190033 C17.99024981 203.14909304 16.46458778 206.17751385 14.93701172 209.20501709 C12.78360445 213.47381877 10.63434721 217.74470226 8.48730469 222.01670837 C7.34431703 224.29040613 6.19919285 226.56303131 5.05175781 228.83448792 C4.27590332 230.37640053 4.27590332 230.37640053 3.484375 231.94946289 C3.02772461 232.85451065 2.57107422 233.75955841 2.10058594 234.69203186 C0.90790735 237.07143521 0.90790735 237.07143521 0 240 C-4.05676455 238.74885179 -7.62482505 237.25475619 -11.31640625 235.1640625 C-12.31687988 234.60066162 -13.31735352 234.03726074 -14.34814453 233.45678711 C-15.40888184 232.85229736 -16.46961914 232.24780762 -17.5625 231.625 C-18.67222168 230.99795166 -19.78194336 230.37090332 -20.92529297 229.72485352 C-24.28711431 227.82280202 -27.64437702 225.91296217 -31 224 C-31.9398877 223.46455566 -32.87977539 222.92911133 -33.84814453 222.37744141 C-38.16351901 219.91706702 -42.47523157 217.4503746 -46.78515625 214.98046875 C-52.19846134 211.88146639 -57.629524 208.81434808 -63.0625 205.75 C-72.27943519 200.55074351 -81.46934164 195.30511837 -90.65148926 190.04476929 C-100.13530438 184.61340539 -109.65404391 179.24777126 -119.21630859 173.95532227 C-121.06148803 172.92911007 -122.8956528 171.88275231 -124.71627808 170.81358337 C-127.09184504 169.50156949 -129.33279071 168.40602736 -131.81072998 167.34741211 C-141.74809823 162.7800849 -141.74809823 162.7800849 -143.83656883 158.14224052 C-145.12000179 152.70149514 -144.72172614 147.16073556 -144.46484375 141.62109375 C-144.43682872 139.84042844 -144.4154947 138.05964664 -144.40052795 136.27882385 C-144.34353332 131.61492672 -144.19650397 126.9581576 -144.02996826 122.29705811 C-143.87587307 117.53170232 -143.80788106 112.76518147 -143.73242188 107.99804688 C-143.57205614 98.66224997 -143.31644543 89.33171986 -143 80 C-142.29766235 79.60731934 -141.59532471 79.21463867 -140.8717041 78.81005859 C-137.63293916 76.99887301 -134.39459258 75.18694063 -131.15625 73.375 C-130.0518457 72.75753906 -128.94744141 72.14007813 -127.80957031 71.50390625 C-121.01957351 67.70390804 -114.24844417 63.87329012 -107.5 60 C-99.85926825 55.61953066 -92.18923138 51.29478566 -84.5 47 C-75.90709556 42.19985746 -67.34053912 37.35745569 -58.80151367 32.4621582 C-51.54785303 28.30553528 -44.2682948 24.19587909 -36.9831543 20.09472656 C-31.58004371 17.04594943 -26.19826213 13.96350241 -20.8359375 10.84375 C-19.93946754 10.32298637 -19.93946754 10.32298637 -19.02488708 9.79170227 C-16.09712384 8.09069337 -13.1721657 6.3853292 -10.2512207 4.67260742 C-9.20281006 4.06263916 -8.15439941 3.4526709 -7.07421875 2.82421875 C-6.14182373 2.27854248 -5.20942871 1.73286621 -4.2487793 1.1706543 C-2 0 -2 0 0 0 Z " fill="#283360" transform="translate(1565,165)"/>
<path d="M0 0 C2.14952591 0.00056492 4.2990522 0.00024598 6.44857788 -0.00088501 C12.2535015 -0.00145637 18.05834165 0.01026281 23.86324596 0.02426291 C29.94107319 0.03680645 36.01890255 0.03794362 42.09674072 0.04031372 C53.59238243 0.04651786 65.08798588 0.06291422 76.58361077 0.0830127 C89.67674222 0.10540493 102.76987553 0.11637348 115.86302137 0.12640357 C142.78402761 0.14728141 169.70499994 0.18243661 196.62597656 0.22705078 C196.70213147 7.665135 196.7546207 15.10311841 196.79077148 22.54150391 C196.80584442 25.07116452 196.82630617 27.60079907 196.85229492 30.13037109 C196.88874272 33.76943401 196.90571826 37.40815094 196.91894531 41.04736328 C196.93442917 42.17570587 196.94991302 43.30404846 196.96586609 44.46658325 C196.96802908 54.59119783 196.96802908 54.59119783 193.62597656 59.22705078 C184.9550197 67.83584664 169.45551635 66.6084558 158.05203247 66.60031128 C156.06634368 66.5896991 154.08065644 66.57879475 152.0949707 66.56762695 C149.96470654 66.56677904 147.83444151 66.56725902 145.70417786 66.56895447 C139.96550137 66.56980944 134.22701592 66.55226483 128.48838353 66.5312326 C122.47464184 66.51238223 116.46089498 66.5107088 110.4471283 66.50715637 C99.07906045 66.49786035 87.71107994 66.47327983 76.34305042 66.4431079 C63.39253806 66.40948757 50.44202137 66.39305874 37.49147618 66.3780216 C10.8695947 66.34672796 -15.75220946 66.2940153 -42.37402344 66.22705078 C-42.45026082 58.94969412 -42.50270211 51.67244097 -42.53881836 44.39477539 C-42.55387903 41.92045238 -42.57433169 39.44615596 -42.6003418 36.97192383 C-42.63684374 33.40976388 -42.65377748 29.84795778 -42.66699219 26.28564453 C-42.68247604 25.18433701 -42.6979599 24.08302948 -42.71391296 22.948349 C-42.71556522 15.36091317 -42.04759597 10.31194217 -36.93652344 4.41455078 C-27.53583889 -2.51035843 -11.07978501 -0.0409232 0 0 Z " fill="#293461" transform="translate(971.3740234375,414.77294921875)"/>
</svg>
